<mxfile host="65bd71144e">
    <diagram id="BRqQBNU2Q0-WfyeBBJri" name="monad">
        <mxGraphModel grid="1" page="1" gridSize="10" guides="1" tooltips="1" connect="1" arrows="1" fold="1" pageScale="1" pageWidth="3000" pageHeight="3000" math="0" shadow="0">
            <root>
                <mxCell id="0"/>
                <mxCell id="48" value="bg" parent="0"/>
                <mxCell id="49" value="" style="rounded=0;whiteSpace=wrap;html=1;strokeWidth=2;fontColor=#181818;fillColor=#242424;strokeColor=none;" parent="48" vertex="1">
                    <mxGeometry x="680" y="340" width="150" height="1000" as="geometry"/>
                </mxCell>
                <mxCell id="50" value="" style="rounded=0;whiteSpace=wrap;html=1;strokeWidth=2;fontColor=#181818;fillColor=#242424;strokeColor=none;" parent="48" vertex="1">
                    <mxGeometry x="250" y="340" width="150" height="1000" as="geometry"/>
                </mxCell>
                <mxCell id="51" value="" style="rounded=0;whiteSpace=wrap;html=1;strokeWidth=2;fontColor=#181818;fillColor=default;strokeColor=none;" parent="48" vertex="1">
                    <mxGeometry x="400" y="340" width="280" height="1000" as="geometry"/>
                </mxCell>
                <mxCell id="1" value="fg" parent="0"/>
                <mxCell id="18" value="" style="rounded=0;whiteSpace=wrap;html=1;strokeWidth=2;fillColor=#444444;strokeColor=none;" parent="1" vertex="1">
                    <mxGeometry x="420" y="500" width="240" height="110" as="geometry"/>
                </mxCell>
                <mxCell id="7" value="" style="whiteSpace=wrap;html=1;aspect=fixed;strokeWidth=2;strokeColor=none;fillColor=#444444;" parent="1" vertex="1">
                    <mxGeometry x="700" y="360" width="110" height="110" as="geometry"/>
                </mxCell>
                <mxCell id="2" value="" style="whiteSpace=wrap;html=1;aspect=fixed;strokeWidth=2;strokeColor=none;fillColor=#444444;" parent="1" vertex="1">
                    <mxGeometry x="270" y="360" width="110" height="110" as="geometry"/>
                </mxCell>
                <mxCell id="3" value="" style="triangle;whiteSpace=wrap;html=1;rotation=-90;strokeWidth=2;fillColor=#DE958E;strokeColor=none;" parent="1" vertex="1">
                    <mxGeometry x="570" y="372.09" width="73.57" height="85.83" as="geometry"/>
                </mxCell>
                <mxCell id="8" style="edgeStyle=none;html=1;entryX=0.5;entryY=0;entryDx=0;entryDy=0;strokeWidth=2;strokeColor=#f4f4f4;" parent="1" source="4" target="3" edge="1">
                    <mxGeometry relative="1" as="geometry"/>
                </mxCell>
                <mxCell id="4" value="" style="ellipse;whiteSpace=wrap;html=1;aspect=fixed;strokeWidth=2;fillColor=#B6ECF3;strokeColor=none;" parent="1" vertex="1">
                    <mxGeometry x="440" y="375" width="80" height="80" as="geometry"/>
                </mxCell>
                <mxCell id="5" value="" style="ellipse;whiteSpace=wrap;html=1;aspect=fixed;strokeWidth=2;fillColor=#B6ECF3;strokeColor=none;" parent="1" vertex="1">
                    <mxGeometry x="285" y="375" width="80" height="80" as="geometry"/>
                </mxCell>
                <mxCell id="6" value="" style="triangle;whiteSpace=wrap;html=1;rotation=-90;strokeWidth=2;fillColor=#DE958E;strokeColor=none;" parent="1" vertex="1">
                    <mxGeometry x="718.21" y="372.09" width="73.57" height="85.83" as="geometry"/>
                </mxCell>
                <mxCell id="10" value="" style="whiteSpace=wrap;html=1;aspect=fixed;strokeWidth=2;strokeColor=none;fillColor=#444444;" parent="1" vertex="1">
                    <mxGeometry x="700" y="500" width="110" height="110" as="geometry"/>
                </mxCell>
                <mxCell id="11" value="" style="whiteSpace=wrap;html=1;aspect=fixed;strokeWidth=2;strokeColor=none;fillColor=#444444;" parent="1" vertex="1">
                    <mxGeometry x="270" y="500" width="110" height="110" as="geometry"/>
                </mxCell>
                <mxCell id="12" value="" style="triangle;whiteSpace=wrap;html=1;rotation=-90;strokeWidth=2;fillColor=#DE958E;strokeColor=none;" parent="1" vertex="1">
                    <mxGeometry x="570" y="512.0899999999999" width="73.57" height="85.83" as="geometry"/>
                </mxCell>
                <mxCell id="13" style="edgeStyle=none;html=1;entryX=0.5;entryY=0;entryDx=0;entryDy=0;strokeWidth=2;strokeColor=#f4f4f4;" parent="1" source="14" target="12" edge="1">
                    <mxGeometry relative="1" as="geometry"/>
                </mxCell>
                <mxCell id="14" value="" style="ellipse;whiteSpace=wrap;html=1;aspect=fixed;strokeWidth=2;fillColor=#B6ECF3;strokeColor=none;" parent="1" vertex="1">
                    <mxGeometry x="435" y="515" width="80" height="80" as="geometry"/>
                </mxCell>
                <mxCell id="15" value="" style="ellipse;whiteSpace=wrap;html=1;aspect=fixed;strokeWidth=2;fillColor=#B6ECF3;strokeColor=none;" parent="1" vertex="1">
                    <mxGeometry x="285" y="515" width="80" height="80" as="geometry"/>
                </mxCell>
                <mxCell id="16" value="" style="triangle;whiteSpace=wrap;html=1;rotation=-90;strokeWidth=2;fillColor=#DE958E;strokeColor=none;" parent="1" vertex="1">
                    <mxGeometry x="718.21" y="512.0899999999999" width="73.57" height="85.83" as="geometry"/>
                </mxCell>
                <mxCell id="20" value="" style="whiteSpace=wrap;html=1;aspect=fixed;strokeWidth=2;strokeColor=none;fillColor=#444444;" parent="1" vertex="1">
                    <mxGeometry x="700" y="640" width="110" height="110" as="geometry"/>
                </mxCell>
                <mxCell id="21" value="" style="ellipse;whiteSpace=wrap;html=1;aspect=fixed;strokeWidth=2;fillColor=#B6ECF3;strokeColor=none;" parent="1" vertex="1">
                    <mxGeometry x="285" y="655" width="80" height="80" as="geometry"/>
                </mxCell>
                <mxCell id="22" value="" style="ellipse;whiteSpace=wrap;html=1;aspect=fixed;strokeWidth=2;fillColor=#B6ECF3;strokeColor=none;" parent="1" vertex="1">
                    <mxGeometry x="715" y="655" width="80" height="80" as="geometry"/>
                </mxCell>
                <mxCell id="24" value="" style="rounded=0;whiteSpace=wrap;html=1;strokeWidth=2;fillColor=#444444;strokeColor=none;" parent="1" vertex="1">
                    <mxGeometry x="550" y="780" width="110" height="110" as="geometry"/>
                </mxCell>
                <mxCell id="25" value="" style="whiteSpace=wrap;html=1;aspect=fixed;strokeWidth=2;strokeColor=none;fillColor=#444444;" parent="1" vertex="1">
                    <mxGeometry x="700" y="780" width="110" height="110" as="geometry"/>
                </mxCell>
                <mxCell id="26" value="" style="whiteSpace=wrap;html=1;aspect=fixed;strokeWidth=2;strokeColor=none;fillColor=#444444;" parent="1" vertex="1">
                    <mxGeometry x="270" y="780" width="110" height="110" as="geometry"/>
                </mxCell>
                <mxCell id="27" value="" style="triangle;whiteSpace=wrap;html=1;rotation=-90;strokeWidth=2;fillColor=#DE958E;strokeColor=none;" parent="1" vertex="1">
                    <mxGeometry x="570" y="792.0899999999999" width="73.57" height="85.83" as="geometry"/>
                </mxCell>
                <mxCell id="28" style="edgeStyle=none;html=1;strokeWidth=2;entryX=0;entryY=0.5;entryDx=0;entryDy=0;strokeColor=#f4f4f4;" parent="1" source="29" target="24" edge="1">
                    <mxGeometry relative="1" as="geometry">
                        <mxPoint x="540" y="835" as="targetPoint"/>
                    </mxGeometry>
                </mxCell>
                <mxCell id="29" value="" style="ellipse;whiteSpace=wrap;html=1;aspect=fixed;strokeWidth=2;fillColor=#B6ECF3;strokeColor=none;" parent="1" vertex="1">
                    <mxGeometry x="435" y="795" width="80" height="80" as="geometry"/>
                </mxCell>
                <mxCell id="30" value="" style="ellipse;whiteSpace=wrap;html=1;aspect=fixed;strokeWidth=2;fillColor=#B6ECF3;strokeColor=none;" parent="1" vertex="1">
                    <mxGeometry x="285" y="795" width="80" height="80" as="geometry"/>
                </mxCell>
                <mxCell id="31" value="" style="triangle;whiteSpace=wrap;html=1;rotation=-90;strokeWidth=2;fillColor=#DE958E;strokeColor=none;" parent="1" vertex="1">
                    <mxGeometry x="718.21" y="792.0899999999999" width="73.57" height="85.83" as="geometry"/>
                </mxCell>
                <mxCell id="32" value="" style="whiteSpace=wrap;html=1;aspect=fixed;strokeWidth=2;strokeColor=none;fillColor=#444444;" parent="1" vertex="1">
                    <mxGeometry x="700" y="920" width="110" height="110" as="geometry"/>
                </mxCell>
                <mxCell id="33" value="" style="whiteSpace=wrap;html=1;aspect=fixed;strokeWidth=2;strokeColor=none;fillColor=#444444;" parent="1" vertex="1">
                    <mxGeometry x="270" y="920" width="110" height="110" as="geometry"/>
                </mxCell>
                <mxCell id="34" value="" style="ellipse;whiteSpace=wrap;html=1;aspect=fixed;strokeWidth=2;fillColor=#B6ECF3;strokeColor=none;" parent="1" vertex="1">
                    <mxGeometry x="285" y="935" width="80" height="80" as="geometry"/>
                </mxCell>
                <mxCell id="35" value="" style="triangle;whiteSpace=wrap;html=1;rotation=-90;strokeWidth=2;fillColor=#DE958E;strokeColor=none;" parent="1" vertex="1">
                    <mxGeometry x="718.21" y="932.0899999999999" width="73.57" height="85.83" as="geometry"/>
                </mxCell>
                <mxCell id="36" value="" style="whiteSpace=wrap;html=1;aspect=fixed;strokeWidth=2;strokeColor=none;fillColor=#444444;" parent="1" vertex="1">
                    <mxGeometry x="551.79" y="920" width="110" height="110" as="geometry"/>
                </mxCell>
                <mxCell id="37" value="" style="triangle;whiteSpace=wrap;html=1;rotation=-90;strokeWidth=2;fillColor=#DE958E;strokeColor=none;" parent="1" vertex="1">
                    <mxGeometry x="570" y="932.0899999999999" width="73.57" height="85.83" as="geometry"/>
                </mxCell>
                <mxCell id="38" value="" style="whiteSpace=wrap;html=1;aspect=fixed;strokeWidth=2;strokeColor=none;fillColor=#444444;" parent="1" vertex="1">
                    <mxGeometry x="700" y="1060" width="110" height="110" as="geometry"/>
                </mxCell>
                <mxCell id="41" value="EXCEPTION" style="whiteSpace=wrap;html=1;aspect=fixed;strokeWidth=2;strokeColor=none;fillColor=#EBB483;fontColor=#181818;fontStyle=1" parent="1" vertex="1">
                    <mxGeometry x="280" y="1070" width="90" height="90" as="geometry"/>
                </mxCell>
                <mxCell id="43" value="EXCEPTION" style="whiteSpace=wrap;html=1;aspect=fixed;strokeWidth=2;strokeColor=none;fillColor=#EBB483;fontColor=#181818;fontStyle=1" parent="1" vertex="1">
                    <mxGeometry x="710" y="1070" width="90" height="90" as="geometry"/>
                </mxCell>
                <mxCell id="KwMTXw-tyMPcR6zwuscQ-52" value="" style="whiteSpace=wrap;html=1;aspect=fixed;strokeWidth=2;strokeColor=none;fillColor=#444444;" vertex="1" parent="1">
                    <mxGeometry x="270" y="1200" width="110" height="110" as="geometry"/>
                </mxCell>
                <mxCell id="KwMTXw-tyMPcR6zwuscQ-53" value="" style="ellipse;whiteSpace=wrap;html=1;aspect=fixed;strokeWidth=2;fillColor=#B6ECF3;strokeColor=none;" vertex="1" parent="1">
                    <mxGeometry x="285" y="1215" width="80" height="80" as="geometry"/>
                </mxCell>
                <mxCell id="KwMTXw-tyMPcR6zwuscQ-54" value="" style="ellipse;whiteSpace=wrap;html=1;aspect=fixed;strokeWidth=2;fillColor=#B6ECF3;strokeColor=none;" vertex="1" parent="1">
                    <mxGeometry x="715" y="1215" width="80" height="80" as="geometry"/>
                </mxCell>
            </root>
        </mxGraphModel>
    </diagram>
    <diagram name="fmap" id="Al2d19KK9ROIfPpk1n1R">
        <mxGraphModel dx="869" dy="842" grid="1" gridSize="10" guides="1" tooltips="1" connect="1" arrows="1" fold="1" page="1" pageScale="1" pageWidth="3000" pageHeight="3000" math="0" shadow="0">
            <root>
                <mxCell id="oJH5bcCGSZni3kuq_-3t-0"/>
                <mxCell id="oJH5bcCGSZni3kuq_-3t-1" parent="oJH5bcCGSZni3kuq_-3t-0"/>
                <mxCell id="oJH5bcCGSZni3kuq_-3t-6" value="" style="whiteSpace=wrap;html=1;aspect=fixed;strokeWidth=2;strokeColor=none;fillColor=#444444;" parent="oJH5bcCGSZni3kuq_-3t-1" vertex="1">
                    <mxGeometry x="700" y="360" width="110" height="110" as="geometry"/>
                </mxCell>
                <mxCell id="oJH5bcCGSZni3kuq_-3t-7" value="" style="whiteSpace=wrap;html=1;aspect=fixed;strokeWidth=2;strokeColor=none;fillColor=#444444;" parent="oJH5bcCGSZni3kuq_-3t-1" vertex="1">
                    <mxGeometry x="270" y="360" width="110" height="110" as="geometry"/>
                </mxCell>
                <mxCell id="oJH5bcCGSZni3kuq_-3t-8" value="" style="triangle;whiteSpace=wrap;html=1;rotation=-90;strokeWidth=2;fillColor=#DE958E;strokeColor=none;" parent="oJH5bcCGSZni3kuq_-3t-1" vertex="1">
                    <mxGeometry x="560" y="372.09" width="73.57" height="85.83" as="geometry"/>
                </mxCell>
                <mxCell id="oJH5bcCGSZni3kuq_-3t-9" style="edgeStyle=none;html=1;entryX=0.5;entryY=0;entryDx=0;entryDy=0;strokeWidth=2;strokeColor=#f4f4f4;" parent="oJH5bcCGSZni3kuq_-3t-1" source="oJH5bcCGSZni3kuq_-3t-10" target="oJH5bcCGSZni3kuq_-3t-8" edge="1">
                    <mxGeometry relative="1" as="geometry"/>
                </mxCell>
                <mxCell id="oJH5bcCGSZni3kuq_-3t-10" value="" style="ellipse;whiteSpace=wrap;html=1;aspect=fixed;strokeWidth=2;fillColor=#B6ECF3;strokeColor=none;" parent="oJH5bcCGSZni3kuq_-3t-1" vertex="1">
                    <mxGeometry x="440" y="375" width="80" height="80" as="geometry"/>
                </mxCell>
                <mxCell id="oJH5bcCGSZni3kuq_-3t-11" value="" style="ellipse;whiteSpace=wrap;html=1;aspect=fixed;strokeWidth=2;fillColor=#B6ECF3;strokeColor=none;" parent="oJH5bcCGSZni3kuq_-3t-1" vertex="1">
                    <mxGeometry x="285" y="375" width="80" height="80" as="geometry"/>
                </mxCell>
                <mxCell id="oJH5bcCGSZni3kuq_-3t-12" value="" style="triangle;whiteSpace=wrap;html=1;rotation=-90;strokeWidth=2;fillColor=#DE958E;strokeColor=none;" parent="oJH5bcCGSZni3kuq_-3t-1" vertex="1">
                    <mxGeometry x="718.21" y="372.09" width="73.57" height="85.83" as="geometry"/>
                </mxCell>
            </root>
        </mxGraphModel>
    </diagram>
    <diagram name="app" id="9_TQ4z-ipIA3qHij8OlL">
        <mxGraphModel grid="1" page="1" gridSize="10" guides="1" tooltips="1" connect="1" arrows="1" fold="1" pageScale="1" pageWidth="3000" pageHeight="3000" math="0" shadow="0">
            <root>
                <mxCell id="IYaJkeFjEHqPXnomYeB3-0"/>
                <mxCell id="IYaJkeFjEHqPXnomYeB3-1" parent="IYaJkeFjEHqPXnomYeB3-0"/>
                <mxCell id="IYaJkeFjEHqPXnomYeB3-2" value="" style="rounded=0;whiteSpace=wrap;html=1;strokeWidth=2;fillColor=#444444;strokeColor=none;" parent="IYaJkeFjEHqPXnomYeB3-1" vertex="1">
                    <mxGeometry x="420" y="500" width="240" height="110" as="geometry"/>
                </mxCell>
                <mxCell id="IYaJkeFjEHqPXnomYeB3-10" value="" style="whiteSpace=wrap;html=1;aspect=fixed;strokeWidth=2;strokeColor=none;fillColor=#444444;" parent="IYaJkeFjEHqPXnomYeB3-1" vertex="1">
                    <mxGeometry x="700" y="500" width="110" height="110" as="geometry"/>
                </mxCell>
                <mxCell id="IYaJkeFjEHqPXnomYeB3-11" value="" style="whiteSpace=wrap;html=1;aspect=fixed;strokeWidth=2;strokeColor=none;fillColor=#444444;" parent="IYaJkeFjEHqPXnomYeB3-1" vertex="1">
                    <mxGeometry x="270" y="500" width="110" height="110" as="geometry"/>
                </mxCell>
                <mxCell id="IYaJkeFjEHqPXnomYeB3-12" value="" style="triangle;whiteSpace=wrap;html=1;rotation=-90;strokeWidth=2;fillColor=#DE958E;strokeColor=none;" parent="IYaJkeFjEHqPXnomYeB3-1" vertex="1">
                    <mxGeometry x="570" y="512.0899999999999" width="73.57" height="85.83" as="geometry"/>
                </mxCell>
                <mxCell id="IYaJkeFjEHqPXnomYeB3-13" style="edgeStyle=none;html=1;entryX=0.5;entryY=0;entryDx=0;entryDy=0;strokeWidth=2;strokeColor=#f4f4f4;" parent="IYaJkeFjEHqPXnomYeB3-1" source="IYaJkeFjEHqPXnomYeB3-14" target="IYaJkeFjEHqPXnomYeB3-12" edge="1">
                    <mxGeometry relative="1" as="geometry"/>
                </mxCell>
                <mxCell id="IYaJkeFjEHqPXnomYeB3-14" value="" style="ellipse;whiteSpace=wrap;html=1;aspect=fixed;strokeWidth=2;fillColor=#B6ECF3;strokeColor=none;" parent="IYaJkeFjEHqPXnomYeB3-1" vertex="1">
                    <mxGeometry x="435" y="515" width="80" height="80" as="geometry"/>
                </mxCell>
                <mxCell id="IYaJkeFjEHqPXnomYeB3-15" value="" style="ellipse;whiteSpace=wrap;html=1;aspect=fixed;strokeWidth=2;fillColor=#B6ECF3;strokeColor=none;" parent="IYaJkeFjEHqPXnomYeB3-1" vertex="1">
                    <mxGeometry x="285" y="515" width="80" height="80" as="geometry"/>
                </mxCell>
                <mxCell id="IYaJkeFjEHqPXnomYeB3-16" value="" style="triangle;whiteSpace=wrap;html=1;rotation=-90;strokeWidth=2;fillColor=#DE958E;strokeColor=none;" parent="IYaJkeFjEHqPXnomYeB3-1" vertex="1">
                    <mxGeometry x="718.21" y="512.0899999999999" width="73.57" height="85.83" as="geometry"/>
                </mxCell>
            </root>
        </mxGraphModel>
    </diagram>
    <diagram name="wrap" id="zLlKF-XCt6XgQjAPwLX_">
        <mxGraphModel dx="869" dy="842" grid="1" gridSize="10" guides="1" tooltips="1" connect="1" arrows="1" fold="1" page="1" pageScale="1" pageWidth="3000" pageHeight="3000" math="0" shadow="0">
            <root>
                <mxCell id="FC2tfZT1iKfKmRwbYwtJ-0"/>
                <mxCell id="FC2tfZT1iKfKmRwbYwtJ-1" parent="FC2tfZT1iKfKmRwbYwtJ-0"/>
                <mxCell id="FC2tfZT1iKfKmRwbYwtJ-17" value="" style="whiteSpace=wrap;html=1;aspect=fixed;strokeWidth=2;strokeColor=none;fillColor=#444444;" parent="FC2tfZT1iKfKmRwbYwtJ-1" vertex="1">
                    <mxGeometry x="700" y="640" width="110" height="110" as="geometry"/>
                </mxCell>
                <mxCell id="FC2tfZT1iKfKmRwbYwtJ-18" value="" style="ellipse;whiteSpace=wrap;html=1;aspect=fixed;strokeWidth=2;fillColor=#B6ECF3;strokeColor=none;" parent="FC2tfZT1iKfKmRwbYwtJ-1" vertex="1">
                    <mxGeometry x="285" y="655" width="80" height="80" as="geometry"/>
                </mxCell>
                <mxCell id="FC2tfZT1iKfKmRwbYwtJ-19" value="" style="ellipse;whiteSpace=wrap;html=1;aspect=fixed;strokeWidth=2;fillColor=#B6ECF3;strokeColor=none;" parent="FC2tfZT1iKfKmRwbYwtJ-1" vertex="1">
                    <mxGeometry x="715" y="655" width="80" height="80" as="geometry"/>
                </mxCell>
            </root>
        </mxGraphModel>
    </diagram>
    <diagram name="bind" id="yrJ-A2c-_cwgoWdmgcQH">
        <mxGraphModel grid="1" page="1" gridSize="10" guides="1" tooltips="1" connect="1" arrows="1" fold="1" pageScale="1" pageWidth="3000" pageHeight="3000" math="0" shadow="0">
            <root>
                <mxCell id="hkTsS6Oi3ozWi2ot0U-o-0"/>
                <mxCell id="hkTsS6Oi3ozWi2ot0U-o-1" parent="hkTsS6Oi3ozWi2ot0U-o-0"/>
                <mxCell id="hkTsS6Oi3ozWi2ot0U-o-20" value="" style="rounded=0;whiteSpace=wrap;html=1;strokeWidth=2;fillColor=#444444;strokeColor=none;" parent="hkTsS6Oi3ozWi2ot0U-o-1" vertex="1">
                    <mxGeometry x="550" y="780" width="110" height="110" as="geometry"/>
                </mxCell>
                <mxCell id="hkTsS6Oi3ozWi2ot0U-o-21" value="" style="whiteSpace=wrap;html=1;aspect=fixed;strokeWidth=2;strokeColor=none;fillColor=#444444;" parent="hkTsS6Oi3ozWi2ot0U-o-1" vertex="1">
                    <mxGeometry x="700" y="780" width="110" height="110" as="geometry"/>
                </mxCell>
                <mxCell id="hkTsS6Oi3ozWi2ot0U-o-22" value="" style="whiteSpace=wrap;html=1;aspect=fixed;strokeWidth=2;strokeColor=none;fillColor=#444444;" parent="hkTsS6Oi3ozWi2ot0U-o-1" vertex="1">
                    <mxGeometry x="270" y="780" width="110" height="110" as="geometry"/>
                </mxCell>
                <mxCell id="hkTsS6Oi3ozWi2ot0U-o-23" value="" style="triangle;whiteSpace=wrap;html=1;rotation=-90;strokeWidth=2;fillColor=#DE958E;strokeColor=none;" parent="hkTsS6Oi3ozWi2ot0U-o-1" vertex="1">
                    <mxGeometry x="570" y="792.0899999999999" width="73.57" height="85.83" as="geometry"/>
                </mxCell>
                <mxCell id="hkTsS6Oi3ozWi2ot0U-o-24" style="edgeStyle=none;html=1;strokeWidth=2;entryX=0;entryY=0.5;entryDx=0;entryDy=0;strokeColor=#f4f4f4;" parent="hkTsS6Oi3ozWi2ot0U-o-1" source="hkTsS6Oi3ozWi2ot0U-o-25" target="hkTsS6Oi3ozWi2ot0U-o-20" edge="1">
                    <mxGeometry relative="1" as="geometry">
                        <mxPoint x="540" y="835" as="targetPoint"/>
                    </mxGeometry>
                </mxCell>
                <mxCell id="hkTsS6Oi3ozWi2ot0U-o-25" value="" style="ellipse;whiteSpace=wrap;html=1;aspect=fixed;strokeWidth=2;fillColor=#B6ECF3;strokeColor=none;" parent="hkTsS6Oi3ozWi2ot0U-o-1" vertex="1">
                    <mxGeometry x="435" y="795" width="80" height="80" as="geometry"/>
                </mxCell>
                <mxCell id="hkTsS6Oi3ozWi2ot0U-o-26" value="" style="ellipse;whiteSpace=wrap;html=1;aspect=fixed;strokeWidth=2;fillColor=#B6ECF3;strokeColor=none;" parent="hkTsS6Oi3ozWi2ot0U-o-1" vertex="1">
                    <mxGeometry x="285" y="795" width="80" height="80" as="geometry"/>
                </mxCell>
                <mxCell id="hkTsS6Oi3ozWi2ot0U-o-27" value="" style="triangle;whiteSpace=wrap;html=1;rotation=-90;strokeWidth=2;fillColor=#DE958E;strokeColor=none;" parent="hkTsS6Oi3ozWi2ot0U-o-1" vertex="1">
                    <mxGeometry x="718.21" y="792.0899999999999" width="73.57" height="85.83" as="geometry"/>
                </mxCell>
            </root>
        </mxGraphModel>
    </diagram>
    <diagram name="right" id="_GeWZb_Ha9xAHUZWDP5c">
        <mxGraphModel dx="869" dy="842" grid="1" gridSize="10" guides="1" tooltips="1" connect="1" arrows="1" fold="1" page="1" pageScale="1" pageWidth="3000" pageHeight="3000" math="0" shadow="0">
            <root>
                <mxCell id="8dFuM0ymgt7JWwUUoytv-0"/>
                <mxCell id="8dFuM0ymgt7JWwUUoytv-1" parent="8dFuM0ymgt7JWwUUoytv-0"/>
                <mxCell id="8dFuM0ymgt7JWwUUoytv-28" value="" style="whiteSpace=wrap;html=1;aspect=fixed;strokeWidth=2;strokeColor=none;fillColor=#444444;" parent="8dFuM0ymgt7JWwUUoytv-1" vertex="1">
                    <mxGeometry x="700" y="920" width="110" height="110" as="geometry"/>
                </mxCell>
                <mxCell id="8dFuM0ymgt7JWwUUoytv-29" value="" style="whiteSpace=wrap;html=1;aspect=fixed;strokeWidth=2;strokeColor=none;fillColor=#444444;" parent="8dFuM0ymgt7JWwUUoytv-1" vertex="1">
                    <mxGeometry x="270" y="920" width="110" height="110" as="geometry"/>
                </mxCell>
                <mxCell id="8dFuM0ymgt7JWwUUoytv-30" value="" style="ellipse;whiteSpace=wrap;html=1;aspect=fixed;strokeWidth=2;fillColor=#B6ECF3;strokeColor=none;" parent="8dFuM0ymgt7JWwUUoytv-1" vertex="1">
                    <mxGeometry x="285" y="935" width="80" height="80" as="geometry"/>
                </mxCell>
                <mxCell id="8dFuM0ymgt7JWwUUoytv-31" value="" style="triangle;whiteSpace=wrap;html=1;rotation=-90;strokeWidth=2;fillColor=#DE958E;strokeColor=none;" parent="8dFuM0ymgt7JWwUUoytv-1" vertex="1">
                    <mxGeometry x="718.21" y="932.0899999999999" width="73.57" height="85.83" as="geometry"/>
                </mxCell>
                <mxCell id="8dFuM0ymgt7JWwUUoytv-32" value="" style="whiteSpace=wrap;html=1;aspect=fixed;strokeWidth=2;strokeColor=none;fillColor=#444444;" parent="8dFuM0ymgt7JWwUUoytv-1" vertex="1">
                    <mxGeometry x="551.79" y="920" width="110" height="110" as="geometry"/>
                </mxCell>
                <mxCell id="8dFuM0ymgt7JWwUUoytv-33" value="" style="triangle;whiteSpace=wrap;html=1;rotation=-90;strokeWidth=2;fillColor=#DE958E;strokeColor=none;" parent="8dFuM0ymgt7JWwUUoytv-1" vertex="1">
                    <mxGeometry x="570" y="932.0899999999999" width="73.57" height="85.83" as="geometry"/>
                </mxCell>
            </root>
        </mxGraphModel>
    </diagram>
    <diagram name="fail" id="Pm-Xrywbxhk-IHy6q_qW">
        <mxGraphModel dx="869" dy="842" grid="0" gridSize="10" guides="1" tooltips="1" connect="1" arrows="1" fold="1" page="1" pageScale="1" pageWidth="3000" pageHeight="3000" math="0" shadow="0">
            <root>
                <mxCell id="gohJ5dVgFCLaFSb05Ylz-0"/>
                <mxCell id="gohJ5dVgFCLaFSb05Ylz-1" parent="gohJ5dVgFCLaFSb05Ylz-0"/>
                <mxCell id="gohJ5dVgFCLaFSb05Ylz-34" value="" style="whiteSpace=wrap;html=1;aspect=fixed;strokeWidth=2;strokeColor=none;fillColor=#444444;" parent="gohJ5dVgFCLaFSb05Ylz-1" vertex="1">
                    <mxGeometry x="700" y="1060" width="110" height="110" as="geometry"/>
                </mxCell>
                <mxCell id="gohJ5dVgFCLaFSb05Ylz-35" value="EXCEPTION" style="whiteSpace=wrap;html=1;aspect=fixed;strokeWidth=2;strokeColor=none;fillColor=#EBB483;fontColor=#181818;fontStyle=1" parent="gohJ5dVgFCLaFSb05Ylz-1" vertex="1">
                    <mxGeometry x="280" y="1070" width="90" height="90" as="geometry"/>
                </mxCell>
                <mxCell id="gohJ5dVgFCLaFSb05Ylz-36" value="EXCEPTION" style="whiteSpace=wrap;html=1;aspect=fixed;strokeWidth=2;strokeColor=none;fillColor=#EBB483;fontColor=#181818;fontStyle=1" parent="gohJ5dVgFCLaFSb05Ylz-1" vertex="1">
                    <mxGeometry x="710" y="1070" width="90" height="90" as="geometry"/>
                </mxCell>
            </root>
        </mxGraphModel>
    </diagram>
    <diagram name="unwrap" id="eOH8GE1bl4RNTV-L19Fe">
        <mxGraphModel dx="1448" dy="1403" grid="1" gridSize="10" guides="1" tooltips="1" connect="1" arrows="1" fold="1" page="1" pageScale="1" pageWidth="3000" pageHeight="3000" math="0" shadow="0">
            <root>
                <mxCell id="CrGKIczBVMBGzUdtHwqu-0"/>
                <mxCell id="CrGKIczBVMBGzUdtHwqu-1" value="bg" parent="CrGKIczBVMBGzUdtHwqu-0"/>
                <mxCell id="CrGKIczBVMBGzUdtHwqu-5" value="fg" parent="CrGKIczBVMBGzUdtHwqu-0"/>
                <mxCell id="CrGKIczBVMBGzUdtHwqu-41" value="" style="whiteSpace=wrap;html=1;aspect=fixed;strokeWidth=2;strokeColor=none;fillColor=#444444;" vertex="1" parent="CrGKIczBVMBGzUdtHwqu-5">
                    <mxGeometry x="270" y="1200" width="110" height="110" as="geometry"/>
                </mxCell>
                <mxCell id="CrGKIczBVMBGzUdtHwqu-42" value="" style="ellipse;whiteSpace=wrap;html=1;aspect=fixed;strokeWidth=2;fillColor=#B6ECF3;strokeColor=none;" vertex="1" parent="CrGKIczBVMBGzUdtHwqu-5">
                    <mxGeometry x="285" y="1215" width="80" height="80" as="geometry"/>
                </mxCell>
                <mxCell id="CrGKIczBVMBGzUdtHwqu-43" value="" style="ellipse;whiteSpace=wrap;html=1;aspect=fixed;strokeWidth=2;fillColor=#B6ECF3;strokeColor=none;" vertex="1" parent="CrGKIczBVMBGzUdtHwqu-5">
                    <mxGeometry x="715" y="1215" width="80" height="80" as="geometry"/>
                </mxCell>
            </root>
        </mxGraphModel>
    </diagram>
</mxfile>
